<svg width="29" height="32" viewBox="0 0 29 32" fill="none" xmlns="http://www.w3.org/2000/svg">
<path d="M13.5215 10.941C13.8649 10.4115 14.6398 10.4115 14.9831 10.941L27.563 30.3426C27.9387 30.9222 27.5228 31.6876 26.8322 31.6876H22.0467C21.7517 31.6876 21.4768 31.5383 21.3162 31.2909L14.9829 21.5344C14.6395 21.0054 13.8652 21.0054 13.5218 21.5344L7.18849 31.2909C7.02786 31.5383 6.75292 31.6876 6.45793 31.6876H1.6725C0.981838 31.6876 0.565918 30.9222 0.941682 30.3426L13.5215 10.941Z" fill="#F9F6EE"/>
<path d="M1.30637 0.0134331C0.55139 0.0138288 -0.0671602 0.627683 0.00586807 1.37918C0.322722 4.63974 1.76131 7.70635 4.09864 10.0414C6.75981 12.7 10.368 14.1924 14.1295 14.1905C17.891 14.1885 21.4976 12.6922 24.156 10.0309C26.4909 7.69339 27.9263 4.62527 28.2397 1.36438C28.312 0.612809 27.6928 -0.000395421 26.9378 1.91316e-07L24.3299 0.00136671C23.575 0.00176233 22.9741 0.617786 22.8582 1.36387C22.5723 3.20465 21.7097 4.92096 20.3768 6.25533C18.7197 7.9143 16.4715 8.84699 14.1267 8.84822C11.782 8.84945 9.53277 7.91911 7.87392 6.26188C6.53965 4.92891 5.67522 3.2135 5.38738 1.37303C5.27071 0.627065 4.66919 0.0116705 3.91421 0.0120662L1.30637 0.0134331Z" fill="#F9F6EE"/>
<path d="M9.86371 0.674074C9.48623 0.673256 9.17476 0.980043 9.22515 1.35418C9.37074 2.43509 9.86551 3.4462 10.6437 4.22785C11.5837 5.17196 12.8601 5.70397 14.1923 5.70686C15.5245 5.70975 16.8033 5.18327 17.7473 4.24325C18.5289 3.46498 19.0281 2.45603 19.1783 1.37576C19.2304 1.00184 18.9202 0.693709 18.5427 0.69289L9.86371 0.674074Z" fill="#F9F6EE"/>
</svg>
