<svg width="117" height="16" viewBox="0 0 117 16" fill="none" xmlns="http://www.w3.org/2000/svg">
<path d="M20.1636 3.84229C20.0316 3.84206 19.9227 3.93055 19.9403 4.03848C19.9912 4.35028 20.1642 4.64195 20.4363 4.86743C20.765 5.13977 21.2113 5.29324 21.6771 5.29407C22.1429 5.2949 22.59 5.14303 22.9201 4.87187C23.1934 4.64737 23.3679 4.35632 23.4205 4.0447C23.4387 3.93684 23.3302 3.84796 23.1982 3.84772L20.1636 3.84229Z" fill="#F9F6EE"/>
<path d="M6.59769 0.70572C7.48826 0.70572 8.26661 0.803474 8.93273 0.998981C9.59886 1.19449 10.1346 1.40085 10.5401 1.61808C10.9456 1.83531 11.1918 1.98013 11.2786 2.05254L9.7147 4.67016C9.59886 4.58326 9.39974 4.45655 9.11737 4.29C8.84223 4.12346 8.51279 3.97502 8.12904 3.84468C7.75254 3.71435 7.35794 3.64918 6.94523 3.64918C6.38772 3.64918 5.93519 3.75055 5.58765 3.9533C5.24734 4.1488 5.07719 4.44206 5.07719 4.83308C5.07719 5.10099 5.1677 5.34357 5.34871 5.5608C5.53696 5.77078 5.81934 5.97353 6.19584 6.16904C6.57959 6.3573 7.0647 6.56367 7.65117 6.78814C8.18697 6.98365 8.69018 7.21536 9.16081 7.48327C9.63144 7.75119 10.0441 8.06979 10.3989 8.43908C10.7609 8.80113 11.0469 9.22111 11.2569 9.69901C11.4669 10.1769 11.5719 10.72 11.5719 11.3282C11.5719 12.0523 11.4234 12.6823 11.1266 13.2181C10.8297 13.7467 10.4243 14.1848 9.91019 14.5324C9.40336 14.8799 8.82413 15.137 8.17249 15.3035C7.52809 15.4773 6.85834 15.5642 6.16326 15.5642C5.17856 15.5642 4.29523 15.452 3.51326 15.2275C2.73853 15.003 2.11223 14.7605 1.63436 14.4998C1.15649 14.2391 0.870493 14.0653 0.776367 13.9784L2.39461 11.2522C2.48149 11.3174 2.64802 11.4224 2.8942 11.5672C3.14761 11.712 3.45533 11.8641 3.81736 12.0234C4.17938 12.1754 4.56312 12.3058 4.96859 12.4144C5.38129 12.523 5.78676 12.5773 6.18498 12.5773C6.8511 12.5773 7.3507 12.4506 7.68376 12.1971C8.01682 11.9365 8.18335 11.5961 8.18335 11.1762C8.18335 10.8648 8.07836 10.586 7.86839 10.3398C7.65841 10.0936 7.34346 9.86193 6.92351 9.6447C6.50356 9.42023 5.97863 9.1849 5.34871 8.93871C4.71879 8.68528 4.1287 8.37753 3.57842 8.01549C3.03539 7.65344 2.59372 7.20088 2.25342 6.6578C1.91312 6.11473 1.74297 5.44132 1.74297 4.63757C1.74297 3.83382 1.96742 3.13869 2.41633 2.55217C2.87248 1.95841 3.46981 1.50223 4.20834 1.18363C4.95411 0.865022 5.75056 0.70572 6.59769 0.70572Z" fill="#F9F6EE"/>
<path d="M12.0187 6.38627H13.5392V2.72595H16.8083V6.38627H18.8066V9.10163H16.8083V11.5889C16.8083 11.9582 16.8626 12.2587 16.9712 12.4904C17.0798 12.7149 17.2789 12.8271 17.5685 12.8271C17.764 12.8271 17.9305 12.7837 18.0681 12.6968C18.2057 12.6099 18.2889 12.552 18.3179 12.523L19.4474 14.8691C19.3967 14.9125 19.2374 14.9922 18.9695 15.108C18.7089 15.2239 18.3758 15.3289 17.9703 15.423C17.5649 15.5171 17.1123 15.5642 16.6128 15.5642C15.7222 15.5642 14.9873 15.3144 14.408 14.8148C13.8288 14.3079 13.5392 13.5295 13.5392 12.4795V9.10163H12.0187V6.38627Z" fill="#F9F6EE"/>
<path d="M20.0183 15.3035V6.38627H23.3199V15.3035H20.0183Z" fill="#F9F6EE"/>
<path d="M30.9163 6.38627H34.6523L30.4493 10.644L35.0868 15.3035H31.2638L27.821 11.7192V15.3035H24.5193V0.358154H27.821V9.49264L30.9163 6.38627Z" fill="#F9F6EE"/>
<path d="M41.2925 6.38627H45.0285L40.8254 10.644L45.463 15.3035H41.64L38.1972 11.7192V15.3035H34.8955V0.358154H38.1972V9.49264L41.2925 6.38627Z" fill="#F9F6EE"/>
<path d="M57.8484 6.12559C58.5217 6.12559 59.1154 6.26679 59.6295 6.54919C60.1436 6.82435 60.5454 7.25156 60.835 7.83084C61.1319 8.41012 61.2803 9.15594 61.2803 10.0683V15.3035H58.033V10.5679C58.033 9.9452 57.9389 9.44196 57.7506 9.05819C57.5624 8.67441 57.1895 8.48253 56.632 8.48253C56.2989 8.48253 56.0057 8.56942 55.7523 8.7432C55.4988 8.91699 55.3033 9.15956 55.1658 9.47092C55.0282 9.77504 54.9594 10.1407 54.9594 10.5679V15.3035H51.9293V10.5679C51.9293 9.9452 51.8243 9.44196 51.6143 9.05819C51.4116 8.67441 51.0496 8.48253 50.5283 8.48253C50.1952 8.48253 49.902 8.56942 49.6486 8.7432C49.3951 8.90975 49.1996 9.1487 49.0621 9.46006C48.9318 9.76418 48.8666 10.1335 48.8666 10.5679V15.3035H45.5867V6.38627H48.8666V7.65706C48.9535 7.43259 49.1417 7.2045 49.4313 6.97278C49.7282 6.73383 50.0938 6.53471 50.5283 6.37541C50.9627 6.20886 51.4225 6.12559 51.9076 6.12559C52.4361 6.12559 52.8778 6.20524 53.2326 6.36454C53.5874 6.5166 53.877 6.72297 54.1014 6.98365C54.3331 7.24432 54.5178 7.52672 54.6553 7.83084C54.7567 7.57017 54.9558 7.30949 55.2527 7.04882C55.5568 6.7809 55.9333 6.56005 56.3822 6.38627C56.8383 6.21248 57.3271 6.12559 57.8484 6.12559Z" fill="#F9F6EE"/>
<path d="M69.3508 15.3035V13.859C69.2857 14.0038 69.1191 14.2138 68.8512 14.4889C68.5906 14.7641 68.243 15.0139 67.8086 15.2384C67.3742 15.4556 66.8674 15.5642 66.2881 15.5642C65.4193 15.5642 64.659 15.3542 64.0074 14.9342C63.3557 14.507 62.8489 13.9386 62.4869 13.229C62.1249 12.5121 61.9439 11.7192 61.9439 10.8503C61.9439 9.98141 62.1249 9.19214 62.4869 8.48253C62.8489 7.76567 63.3557 7.19363 64.0074 6.76642C64.659 6.3392 65.4193 6.12559 66.2881 6.12559C66.8456 6.12559 67.3344 6.2161 67.7543 6.39713C68.1743 6.57091 68.5146 6.7809 68.7752 7.02709C69.0359 7.26605 69.2169 7.48689 69.3183 7.68964V6.38627H72.5982V15.3035H69.3508ZM65.1803 10.8503C65.1803 11.2558 65.2745 11.6215 65.4627 11.9473C65.651 12.2659 65.9008 12.5158 66.2121 12.6968C66.5307 12.8778 66.8818 12.9683 67.2656 12.9683C67.6638 12.9683 68.015 12.8778 68.3191 12.6968C68.6232 12.5158 68.8621 12.2659 69.0359 11.9473C69.2169 11.6215 69.3074 11.2558 69.3074 10.8503C69.3074 10.4448 69.2169 10.0828 69.0359 9.76418C68.8621 9.43834 68.6232 9.1849 68.3191 9.00388C68.015 8.81561 67.6638 8.72148 67.2656 8.72148C66.8818 8.72148 66.5307 8.81561 66.2121 9.00388C65.9008 9.1849 65.651 9.43834 65.4627 9.76418C65.2745 10.0828 65.1803 10.4448 65.1803 10.8503Z" fill="#F9F6EE"/>
<path d="M80.0693 6.12559C80.692 6.12559 81.3002 6.25231 81.8939 6.50574C82.4876 6.75918 82.9763 7.16105 83.3601 7.71136C83.7438 8.25444 83.9357 8.97129 83.9357 9.86193V15.3035H80.6232V10.405C80.6232 9.7678 80.4712 9.2899 80.1671 8.97129C79.863 8.64545 79.4647 8.48253 78.9724 8.48253C78.6466 8.48253 78.3388 8.56942 78.0492 8.7432C77.7668 8.90975 77.5351 9.1487 77.3541 9.46006C77.1804 9.76418 77.0935 10.1154 77.0935 10.5136V15.3035H73.7918V6.38627H77.0935V7.7005C77.1804 7.46155 77.3614 7.2226 77.6365 6.98365C77.9189 6.73745 78.2701 6.53471 78.69 6.37541C79.1172 6.20886 79.577 6.12559 80.0693 6.12559Z" fill="#F9F6EE"/>
<path d="M98.3582 0.966396H101.606V9.77504C101.606 10.9553 101.374 11.9799 100.91 12.8488C100.447 13.7105 99.7845 14.3803 98.9229 14.8582C98.0613 15.3289 97.0332 15.5642 95.8385 15.5642C94.6366 15.5642 93.6012 15.3289 92.7323 14.8582C91.8635 14.3803 91.1974 13.7105 90.734 12.8488C90.2778 11.9799 90.0498 10.9553 90.0498 9.77504V0.966396H93.2862V9.60126C93.2862 10.2529 93.3876 10.8033 93.5903 11.2522C93.8003 11.7011 94.0972 12.0415 94.4809 12.2732C94.8647 12.4976 95.3172 12.6099 95.8385 12.6099C96.3526 12.6099 96.7979 12.4976 97.1744 12.2732C97.5509 12.0415 97.8405 11.7011 98.0432 11.2522C98.2532 10.8033 98.3582 10.2529 98.3582 9.60126V0.966396Z" fill="#F9F6EE"/>
<path d="M111.613 7.59189L117 15.3035H112.764L109.452 10.2964L106.248 15.3035H102.338L107.421 7.59189L102.805 0.966396H106.932L109.582 5.09375L112.199 0.966396H116.153L111.613 7.59189Z" fill="#F9F6EE"/>
</svg>
